<?xml version="1.0" encoding="UTF-8"?>
<!DOCTYPE svg PUBLIC "-//W3C//DTD SVG 1.1//EN" "http://www.w3.org/Graphics/SVG/1.1/DTD/svg11.dtd">
<svg xmlns="http://www.w3.org/2000/svg" version="1.1" width="1920px" height="1080px" style="shape-rendering:geometricPrecision; text-rendering:geometricPrecision; image-rendering:optimizeQuality; fill-rule:evenodd; clip-rule:evenodd" xmlns:xlink="http://www.w3.org/1999/xlink">
<g><path style="opacity:0.066" fill="#dcceb0" d="M 614.5,148.5 C 464.833,148.5 315.167,148.5 165.5,148.5C 168.382,147.087 171.549,146.421 175,146.5C 306.526,147.63 438.359,147.63 570.5,146.5C 583.167,146.667 595.833,146.833 608.5,147C 610.708,147.191 612.708,147.691 614.5,148.5 Z"/></g>
<g><path style="opacity:0.415" fill="#a49679" d="M 165.5,148.5 C 315.167,148.5 464.833,148.5 614.5,148.5C 615.492,148.328 616.158,148.662 616.5,149.5C 616.5,150.167 616.5,150.833 616.5,151.5C 615.711,151.217 615.044,150.717 614.5,150C 606.507,149.5 598.507,149.334 590.5,149.5C 583.833,149.5 577.167,149.5 570.5,149.5C 435.498,149.167 300.498,149.5 165.5,150.5C 164.476,151.852 163.476,153.185 162.5,154.5C 159.467,156.016 156.8,158.016 154.5,160.5C 137.903,172.949 121.57,185.615 105.5,198.5C 104.041,198.433 102.708,198.766 101.5,199.5C 103.898,195.963 106.898,192.796 110.5,190C 129.012,176.31 147.345,162.477 165.5,148.5 Z"/></g>
<g><path style="opacity:0.785" fill="#6c5b3b" d="M 570.5,149.5 C 535.004,150.498 499.337,150.832 463.5,150.5C 365.833,150.333 268.166,150.5 170.5,151C 167.495,151.533 164.828,152.7 162.5,154.5C 163.476,153.185 164.476,151.852 165.5,150.5C 300.498,149.5 435.498,149.167 570.5,149.5 Z"/></g>
<g><path style="opacity:0.993" fill="#5c4723" d="M 463.5,150.5 C 462.508,152.026 461.008,152.693 459,152.5C 457.14,152.306 455.307,151.972 453.5,151.5C 447.015,152.091 440.681,152.757 434.5,153.5C 345.998,153.167 257.665,153.501 169.5,154.5C 165.5,157.5 161.5,160.5 157.5,163.5C 155.856,163.286 154.356,163.62 153,164.5C 152.7,162.934 153.2,161.601 154.5,160.5C 156.8,158.016 159.467,156.016 162.5,154.5C 164.828,152.7 167.495,151.533 170.5,151C 268.166,150.5 365.833,150.333 463.5,150.5 Z"/></g>
<g><path style="opacity:0.993" fill="#5a4621" d="M 570.5,149.5 C 577.167,149.5 583.833,149.5 590.5,149.5C 597.012,150.167 603.679,150.833 610.5,151.5C 612.925,152.649 612.925,153.316 610.5,153.5C 551.833,153.5 493.167,153.5 434.5,153.5C 440.681,152.757 447.015,152.091 453.5,151.5C 455.307,151.972 457.14,152.306 459,152.5C 461.008,152.693 462.508,152.026 463.5,150.5C 499.337,150.832 535.004,150.498 570.5,149.5 Z"/></g>
<g><path style="opacity:0.704" fill="#857554" d="M 169.5,154.5 C 257.665,153.501 345.998,153.167 434.5,153.5C 493.167,153.5 551.833,153.5 610.5,153.5C 610.5,153.833 610.5,154.167 610.5,154.5C 555.167,154.5 499.833,154.5 444.5,154.5C 436.5,154.5 428.5,154.5 420.5,154.5C 397.142,153.844 374.142,154.51 351.5,156.5C 343.981,156.825 336.648,156.492 329.5,155.5C 301.736,154.172 273.403,154.172 244.5,155.5C 244.5,155.833 244.5,156.167 244.5,156.5C 230.496,156.181 217.162,155.848 204.5,155.5C 193.012,154.505 181.345,154.172 169.5,154.5 Z"/></g>
<g><path style="opacity:0.705" fill="#c3b996" d="M 244.5,155.5 C 273.403,154.172 301.736,154.172 329.5,155.5C 326.167,155.833 322.833,156.167 319.5,156.5C 318.432,155.566 317.099,155.232 315.5,155.5C 296.992,155.17 278.659,155.503 260.5,156.5C 261.174,159.13 260.507,159.13 258.5,156.5C 257.575,157.641 256.741,157.641 256,156.5C 254.62,159.058 253.12,159.058 251.5,156.5C 249.028,157.766 246.694,157.766 244.5,156.5C 251.167,156.167 251.167,155.833 244.5,155.5 Z"/></g>
<g><path style="opacity:0.309" fill="#c1b69a" d="M 420.5,154.5 C 417.713,155.477 414.713,155.81 411.5,155.5C 396.462,154.85 381.795,155.517 367.5,157.5C 362.481,157.589 357.814,157.922 353.5,158.5C 352.833,158.5 352.167,158.5 351.5,158.5C 351.5,157.833 351.5,157.167 351.5,156.5C 374.142,154.51 397.142,153.844 420.5,154.5 Z"/></g>
<g><path style="opacity:0.311" fill="#e4d9c0" d="M 420.5,154.5 C 428.5,154.5 436.5,154.5 444.5,154.5C 444.5,154.833 444.5,155.167 444.5,155.5C 444.5,156.167 444.5,156.833 444.5,157.5C 431.167,157.5 417.833,157.5 404.5,157.5C 406.833,156.833 409.167,156.167 411.5,155.5C 414.713,155.81 417.713,155.477 420.5,154.5 Z"/></g>
<g><path style="opacity:0.992" fill="#cec29f" d="M 444.5,155.5 C 444.5,155.167 444.5,154.833 444.5,154.5C 499.833,154.5 555.167,154.5 610.5,154.5C 611.167,154.5 611.5,154.833 611.5,155.5C 611.167,155.5 610.833,155.5 610.5,155.5C 572.832,155.333 535.165,155.5 497.5,156C 498.416,156.278 499.082,156.778 499.5,157.5C 494.833,157.5 490.167,157.5 485.5,157.5C 485.611,156.883 485.944,156.383 486.5,156C 472.504,155.5 458.504,155.333 444.5,155.5 Z"/></g>
<g><path style="opacity:0.052" fill="#fdfad4" d="M 260.5,156.5 C 278.659,155.503 296.992,155.17 315.5,155.5C 316.568,156.434 317.901,156.768 319.5,156.5C 300.034,156.569 280.368,156.569 260.5,156.5 Z"/></g>
<g><path style="opacity:0.027" fill="#fcf8cb" d="M 411.5,155.5 C 409.167,156.167 406.833,156.833 404.5,157.5C 392.167,157.5 379.833,157.5 367.5,157.5C 381.795,155.517 396.462,154.85 411.5,155.5 Z"/></g>
<g><path style="opacity:0.01" fill="#fffcec" d="M 444.5,155.5 C 458.504,155.333 472.504,155.5 486.5,156C 485.944,156.383 485.611,156.883 485.5,157.5C 471.833,157.5 458.167,157.5 444.5,157.5C 444.5,156.833 444.5,156.167 444.5,155.5 Z"/></g>
<g><path style="opacity:0.971" fill="#efe1b7" d="M 610.5,155.5 C 610.631,156.376 610.298,157.043 609.5,157.5C 604.9,156.557 600.233,156.223 595.5,156.5C 595.5,157.833 595.5,159.167 595.5,160.5C 597.903,160.607 599.736,159.607 601,157.5C 602.617,158.536 602.784,159.703 601.5,161C 605.5,165.501 604.833,166.334 599.5,163.5C 599.5,162.833 599.167,162.5 598.5,162.5C 568.003,161.668 537.336,161.168 506.5,161C 505.944,160.617 505.611,160.117 505.5,159.5C 504.082,157.692 502.082,157.025 499.5,157.5C 499.082,156.778 498.416,156.278 497.5,156C 535.165,155.5 572.832,155.333 610.5,155.5 Z"/></g>
<g><path style="opacity:0.996" fill="#e9d8ae" d="M 610.5,155.5 C 610.833,155.5 611.167,155.5 611.5,155.5C 621.145,162.483 630.478,169.816 639.5,177.5C 635.926,178.99 632.592,179.99 629.5,180.5C 629.64,182.124 628.973,183.29 627.5,184C 628.71,185.039 629.71,186.206 630.5,187.5C 621.518,180.858 612.518,174.191 603.5,167.5C 601.833,166.5 600.5,165.167 599.5,163.5C 604.833,166.334 605.5,165.501 601.5,161C 602.784,159.703 602.617,158.536 601,157.5C 599.736,159.607 597.903,160.607 595.5,160.5C 595.5,159.167 595.5,157.833 595.5,156.5C 600.233,156.223 604.9,156.557 609.5,157.5C 610.298,157.043 610.631,156.376 610.5,155.5 Z"/></g>
<g><path style="opacity:0.194" fill="#beb28e" d="M 169.5,154.5 C 181.345,154.172 193.012,154.505 204.5,155.5C 196.303,156.791 188.136,156.791 180,155.5C 177.773,158.577 174.94,159.41 171.5,158C 160,166.322 148.333,174.488 136.5,182.5C 134.5,183.5 132.5,184.5 130.5,185.5C 139.5,178.167 148.5,170.833 157.5,163.5C 161.5,160.5 165.5,157.5 169.5,154.5 Z"/></g>
<g><path style="opacity:0.412" fill="#e6d4af" d="M 198.5,161.5 C 192.681,162.328 186.681,162.828 180.5,163C 179.29,164.039 178.29,165.206 177.5,166.5C 169.096,173.245 160.429,179.578 151.5,185.5C 153.621,182.822 155.621,179.989 157.5,177C 165.191,173.473 171.525,168.307 176.5,161.5C 183.732,161.341 191.065,161.341 198.5,161.5 Z"/></g>
<g><path style="opacity:0.31" fill="#e6d8b7" d="M 351.5,158.5 C 352.167,158.5 352.833,158.5 353.5,158.5C 353.62,159.586 354.287,160.253 355.5,160.5C 405.364,160.83 455.364,160.496 505.5,159.5C 505.611,160.117 505.944,160.617 506.5,161C 537.336,161.168 568.003,161.668 598.5,162.5C 505.998,162.833 413.665,162.499 321.5,161.5C 331.556,160.078 341.556,159.078 351.5,158.5 Z"/></g>
<g><path style="opacity:0.124" fill="#968766" d="M 200.5,160.5 C 200.389,161.117 200.056,161.617 199.5,162C 203.833,162.167 208.167,162.333 212.5,162.5C 217.222,162.492 221.555,161.825 225.5,160.5C 226.167,160.5 226.5,160.833 226.5,161.5C 235.652,162.494 244.985,162.827 254.5,162.5C 274.836,162.667 295.169,162.5 315.5,162C 317.433,161.749 319.266,161.249 321,160.5C 321.399,160.728 321.565,161.062 321.5,161.5C 413.665,162.499 505.998,162.833 598.5,162.5C 599.167,162.5 599.5,162.833 599.5,163.5C 568.833,163.5 538.167,163.5 507.5,163.5C 425.5,163.5 343.5,163.5 261.5,163.5C 234.831,163.333 208.165,163.5 181.5,164C 180.627,165.045 179.627,165.878 178.5,166.5C 178.167,166.5 177.833,166.5 177.5,166.5C 178.29,165.206 179.29,164.039 180.5,163C 186.681,162.828 192.681,162.328 198.5,161.5C 198.842,160.662 199.508,160.328 200.5,160.5 Z"/></g>
<g><path style="opacity:0.778" fill="#e8dbb7" d="M 254.5,162.5 C 244.985,162.827 235.652,162.494 226.5,161.5C 230.586,160.864 234.752,160.53 239,160.5C 244.432,160.281 249.599,160.948 254.5,162.5 Z"/></g>
<g><path style="opacity:0.086" fill="#f9c57f" d="M 200.5,160.5 C 208.833,160.5 217.167,160.5 225.5,160.5C 221.555,161.825 217.222,162.492 212.5,162.5C 208.167,162.333 203.833,162.167 199.5,162C 200.056,161.617 200.389,161.117 200.5,160.5 Z"/></g>
<g><path style="opacity:0.992" fill="#5a4520" d="M 261.5,163.5 C 273.326,164.331 285.326,164.831 297.5,165C 293.167,165.333 288.833,165.667 284.5,166C 293.667,166.167 302.833,166.333 312,166.5C 357.469,164.735 402.969,164.068 448.5,164.5C 448.389,165.117 448.056,165.617 447.5,166C 448.416,166.278 449.082,166.778 449.5,167.5C 358.998,167.833 268.665,167.499 178.5,166.5C 179.627,165.878 180.627,165.045 181.5,164C 208.165,163.5 234.831,163.333 261.5,163.5 Z"/></g>
<g><path style="opacity:0.998" fill="#5e4c29" d="M 261.5,163.5 C 343.5,163.5 425.5,163.5 507.5,163.5C 488.007,164.497 468.34,164.83 448.5,164.5C 402.969,164.068 357.469,164.735 312,166.5C 302.833,166.333 293.667,166.167 284.5,166C 288.833,165.667 293.167,165.333 297.5,165C 285.326,164.831 273.326,164.331 261.5,163.5 Z"/></g>
<g><path style="opacity:1" fill="#59451f" d="M 507.5,163.5 C 538.167,163.5 568.833,163.5 599.5,163.5C 600.5,165.167 601.833,166.5 603.5,167.5C 603.631,168.239 603.464,168.906 603,169.5C 599.89,168.327 599.723,168.827 602.5,171C 602.167,171.167 601.833,171.333 601.5,171.5C 600.06,170.048 598.394,169.048 596.5,168.5C 596.167,168.5 595.833,168.5 595.5,168.5C 547.003,167.501 498.336,167.168 449.5,167.5C 449.082,166.778 448.416,166.278 447.5,166C 448.056,165.617 448.389,165.117 448.5,164.5C 468.34,164.83 488.007,164.497 507.5,163.5 Z"/></g>
<g><path style="opacity:0.996" fill="#cfc199" d="M 595.5,168.5 C 595.833,168.5 596.167,168.5 596.5,168.5C 596.5,168.833 596.5,169.167 596.5,169.5C 594.833,169.5 593.167,169.5 591.5,169.5C 565.167,169.5 538.833,169.5 512.5,169.5C 461.833,169.5 411.167,169.5 360.5,169.5C 352.5,169.5 344.5,169.5 336.5,169.5C 285.832,169.333 235.166,169.5 184.5,170C 183.756,171.039 182.756,171.539 181.5,171.5C 181.953,170.542 182.619,169.708 183.5,169C 320.833,168.5 458.166,168.333 595.5,168.5 Z"/></g>
<g><path style="opacity:0.899" fill="#eedeb3" d="M 336.5,169.5 C 323.673,170.331 310.673,170.831 297.5,171C 300.818,170.825 302.818,172.325 303.5,175.5C 300.223,175.216 297.057,175.549 294,176.5C 274.576,174.815 255.076,173.482 235.5,172.5C 219.153,173.512 202.819,173.512 186.5,172.5C 182.388,172.474 179.888,174.474 179,178.5C 172.959,182.529 166.792,185.529 160.5,187.5C 166.095,182.685 171.762,177.851 177.5,173C 178.745,172.209 180.078,171.709 181.5,171.5C 182.756,171.539 183.756,171.039 184.5,170C 235.166,169.5 285.832,169.333 336.5,169.5 Z"/></g>
<g><path style="opacity:0.992" fill="#eeddaf" d="M 336.5,169.5 C 344.5,169.5 352.5,169.5 360.5,169.5C 365.694,170.3 371.028,171.133 376.5,172C 377.381,172.708 378.047,173.542 378.5,174.5C 357.831,174.333 337.164,174.5 316.5,175C 313.776,175.27 311.109,175.77 308.5,176.5C 306.785,176.405 305.119,176.072 303.5,175.5C 302.818,172.325 300.818,170.825 297.5,171C 310.673,170.831 323.673,170.331 336.5,169.5 Z"/></g>
<g><path style="opacity:0.492" fill="#efdfb5" d="M 360.5,169.5 C 411.167,169.5 461.833,169.5 512.5,169.5C 512.389,170.117 512.056,170.617 511.5,171C 507.579,171.203 503.745,171.703 500,172.5C 498.266,171.751 496.433,171.251 494.5,171C 487.174,170.5 479.841,170.334 472.5,170.5C 472.5,171.5 472.5,172.5 472.5,173.5C 447.831,173.333 423.164,173.5 398.5,174C 392.252,174.188 386.085,174.688 380,175.5C 379.617,174.944 379.117,174.611 378.5,174.5C 378.047,173.542 377.381,172.708 376.5,172C 371.028,171.133 365.694,170.3 360.5,169.5 Z"/></g>
<g><path style="opacity:0.292" fill="#f1e2b3" d="M 512.5,169.5 C 538.833,169.5 565.167,169.5 591.5,169.5C 591.5,170.5 591.5,171.5 591.5,172.5C 595.285,170.629 596.618,171.629 595.5,175.5C 594.244,175.539 593.244,175.039 592.5,174C 562.791,173.825 533.125,173.325 503.5,172.5C 493.219,173.476 482.886,173.809 472.5,173.5C 472.5,172.5 472.5,171.5 472.5,170.5C 479.841,170.334 487.174,170.5 494.5,171C 496.433,171.251 498.266,171.751 500,172.5C 503.745,171.703 507.579,171.203 511.5,171C 512.056,170.617 512.389,170.117 512.5,169.5 Z"/></g>
<g><path style="opacity:0.998" fill="#5f4c27" d="M 154.5,160.5 C 153.2,161.601 152.7,162.934 153,164.5C 154.356,163.62 155.856,163.286 157.5,163.5C 148.5,170.833 139.5,178.167 130.5,185.5C 124.129,189.686 118.129,194.353 112.5,199.5C 110.938,199.733 109.605,200.4 108.5,201.5C 108.44,200.957 108.107,200.624 107.5,200.5C 104.292,207.181 103.625,214.181 105.5,221.5C 105.461,223.952 104.794,225.952 103.5,227.5C 103.334,218.827 103.5,210.16 104,201.5C 105.039,200.756 105.539,199.756 105.5,198.5C 121.57,185.615 137.903,172.949 154.5,160.5 Z"/></g>
<g><path style="opacity:0.989" fill="#675430" d="M 590.5,149.5 C 598.507,149.334 606.507,149.5 614.5,150C 615.044,150.717 615.711,151.217 616.5,151.5C 635.545,167.214 654.879,182.547 674.5,197.5C 675.801,198.882 676.634,200.548 677,202.5C 677.5,276.166 677.667,349.833 677.5,423.5C 677.167,423.5 676.833,423.5 676.5,423.5C 676.667,370.499 676.5,317.499 676,264.5C 675.722,263.584 675.222,262.918 674.5,262.5C 674.977,241.741 674.477,221.075 673,200.5C 672.5,306.833 672.333,413.166 672.5,519.5C 672.167,519.5 671.833,519.5 671.5,519.5C 672.165,413.161 671.498,307.161 669.5,201.5C 668.5,199.833 667.167,198.5 665.5,197.5C 656.833,190.833 648.167,184.167 639.5,177.5C 630.478,169.816 621.145,162.483 611.5,155.5C 611.5,154.833 611.167,154.5 610.5,154.5C 610.5,154.167 610.5,153.833 610.5,153.5C 612.925,153.316 612.925,152.649 610.5,151.5C 603.679,150.833 597.012,150.167 590.5,149.5 Z"/></g>
<g><path style="opacity:0.082" fill="#c9b899" d="M 616.5,149.5 C 627.99,158.144 639.657,166.644 651.5,175C 660.425,182.281 669.092,189.781 677.5,197.5C 676.5,197.5 675.5,197.5 674.5,197.5C 654.879,182.547 635.545,167.214 616.5,151.5C 616.5,150.833 616.5,150.167 616.5,149.5 Z"/></g>
<g><path style="opacity:0.996" fill="#ebd9af" d="M 639.5,177.5 C 648.167,184.167 656.833,190.833 665.5,197.5C 663.916,200.136 664.249,202.47 666.5,204.5C 665.5,205.167 664.5,205.833 663.5,206.5C 663.709,207.086 664.043,207.586 664.5,208C 663.207,208.49 661.873,208.657 660.5,208.5C 659.432,207.566 658.099,207.232 656.5,207.5C 647.524,201.185 638.857,194.519 630.5,187.5C 629.71,186.206 628.71,185.039 627.5,184C 628.973,183.29 629.64,182.124 629.5,180.5C 632.592,179.99 635.926,178.99 639.5,177.5 Z"/></g>
<g><path style="opacity:0.994" fill="#6b5932" d="M 177.5,166.5 C 177.833,166.5 178.167,166.5 178.5,166.5C 268.665,167.499 358.998,167.833 449.5,167.5C 498.336,167.168 547.003,167.501 595.5,168.5C 458.166,168.333 320.833,168.5 183.5,169C 182.619,169.708 181.953,170.542 181.5,171.5C 180.078,171.709 178.745,172.209 177.5,173C 171.762,177.851 166.095,182.685 160.5,187.5C 149.903,194.757 139.57,202.423 129.5,210.5C 129.209,209.351 128.376,208.684 127,208.5C 125.467,208.773 123.967,209.106 122.5,209.5C 123.96,207.537 125.627,205.704 127.5,204C 136.11,198.539 144.11,192.373 151.5,185.5C 160.429,179.578 169.096,173.245 177.5,166.5 Z"/></g>
<g><path style="opacity:0.996" fill="#eadcb1" d="M 665.5,197.5 C 667.167,198.5 668.5,199.833 669.5,201.5C 669.345,212.735 668.011,223.735 665.5,234.5C 665.667,235.167 665.833,235.833 666,236.5C 666.308,235.692 666.808,235.025 667.5,234.5C 668.779,252.515 668.779,270.515 667.5,288.5C 666.839,287.282 666.172,285.949 665.5,284.5C 664.914,284.709 664.414,285.043 664,285.5C 663.833,289.167 663.667,292.833 663.5,296.5C 663.537,316.979 663.537,337.479 663.5,358C 663.667,361.5 663.833,365 664,368.5C 664.5,369 665,369.5 665.5,370C 664.209,372.832 663.543,375.832 663.5,379C 664.39,382.225 664.39,385.391 663.5,388.5C 663.486,390.593 664.152,392.426 665.5,394C 663.875,394.853 663.542,395.853 664.5,397C 663.856,401.934 663.19,406.767 662.5,411.5C 661.962,359.233 661.962,307.233 662.5,255.5C 662.333,241.5 662.167,227.5 662,213.5C 661.617,214.056 661.117,214.389 660.5,214.5C 660.5,212.5 660.5,210.5 660.5,208.5C 661.873,208.657 663.207,208.49 664.5,208C 664.043,207.586 663.709,207.086 663.5,206.5C 664.5,205.833 665.5,205.167 666.5,204.5C 664.249,202.47 663.916,200.136 665.5,197.5 Z"/></g>
<g><path style="opacity:0.071" fill="#ece69f" d="M 99.5,206.5 C 100.657,209.273 101.324,212.273 101.5,215.5C 100.833,218.167 100.167,220.833 99.5,223.5C 99.5,217.833 99.5,212.167 99.5,206.5 Z"/></g>
<g><path style="opacity:0.031" fill="#f5e4bf" d="M 145.5,214.5 C 146.873,214.343 148.207,214.51 149.5,215C 148.299,215.903 147.465,217.069 147,218.5C 146.25,217.874 145.416,217.374 144.5,217C 145.252,216.329 145.586,215.496 145.5,214.5 Z"/></g>
<g><path style="opacity:0.992" fill="#ecddb5" d="M 136.5,182.5 C 129.776,189.558 122.443,195.892 114.5,201.5C 114.167,202 113.833,202.5 113.5,203C 114.319,204.319 115.319,205.485 116.5,206.5C 120.835,205.83 124.835,204.33 128.5,202C 132.03,197.451 136.364,194.118 141.5,192C 143.213,190.622 144.547,188.955 145.5,187C 147.518,186.495 149.518,185.995 151.5,185.5C 144.11,192.373 136.11,198.539 127.5,204C 125.627,205.704 123.96,207.537 122.5,209.5C 121.508,209.328 120.842,209.662 120.5,210.5C 119.662,210.842 119.328,211.508 119.5,212.5C 118.503,212.47 117.836,212.97 117.5,214C 118.55,217.455 118.717,220.955 118,224.5C 117.617,225.056 117.117,225.389 116.5,225.5C 115.358,221.304 115.358,217.304 116.5,213.5C 115.418,209.968 113.918,209.968 112,213.5C 111.5,221.827 111.334,230.16 111.5,238.5C 110.833,241.5 110.167,244.5 109.5,247.5C 109.333,232.496 109.5,217.496 110,202.5C 111.045,201.627 111.878,200.627 112.5,199.5C 118.129,194.353 124.129,189.686 130.5,185.5C 132.5,184.5 134.5,183.5 136.5,182.5 Z"/></g>
<g><path style="opacity:0.012" fill="#fffeb7" d="M 139.5,229.5 C 140.586,229.62 141.253,230.287 141.5,231.5C 141.167,232.167 140.833,232.833 140.5,233.5C 139.571,232.311 139.238,230.978 139.5,229.5 Z"/></g>
<g><path style="opacity:0.642" fill="#eadab2" d="M 160.5,187.5 C 159.431,189.969 158.098,192.302 156.5,194.5C 146.503,198.916 138.336,205.583 132,214.5C 132.038,267.297 131.204,319.964 129.5,372.5C 128.501,319.003 128.168,265.336 128.5,211.5C 129.167,211.5 129.5,211.167 129.5,210.5C 139.57,202.423 149.903,194.757 160.5,187.5 Z"/></g>
<g><path style="opacity:0.996" fill="#6b5834" d="M 603.5,167.5 C 612.518,174.191 621.518,180.858 630.5,187.5C 638.857,194.519 647.524,201.185 656.5,207.5C 657.209,208.404 658.209,208.737 659.5,208.5C 659.5,310.5 659.5,412.5 659.5,514.5C 659.167,514.5 658.833,514.5 658.5,514.5C 658.5,513.833 658.5,513.167 658.5,512.5C 658.667,411.833 658.5,311.166 658,210.5C 657.667,210.167 657.333,209.833 657,209.5C 656.5,240.832 656.333,272.165 656.5,303.5C 655.833,272.997 655.167,242.331 654.5,211.5C 653.833,311.999 653.167,412.333 652.5,512.5C 652.833,411.999 652.499,311.665 651.5,211.5C 633.167,197.5 614.833,183.5 596.5,169.5C 596.5,169.167 596.5,168.833 596.5,168.5C 598.394,169.048 600.06,170.048 601.5,171.5C 601.833,171.333 602.167,171.167 602.5,171C 599.723,168.827 599.89,168.327 603,169.5C 603.464,168.906 603.631,168.239 603.5,167.5 Z"/></g>
<g><path style="opacity:0.927" fill="#f0e0b8" d="M 591.5,169.5 C 593.167,169.5 594.833,169.5 596.5,169.5C 614.833,183.5 633.167,197.5 651.5,211.5C 651.5,254.833 651.5,298.167 651.5,341.5C 650.596,339.362 649.929,337.029 649.5,334.5C 650.639,317.192 650.806,299.858 650,282.5C 646.937,267.196 646.77,251.863 649.5,236.5C 649.202,228.864 648.036,221.197 646,213.5C 642.869,209.367 639.369,205.534 635.5,202C 627.991,197.745 620.324,193.745 612.5,190C 609.453,184.204 604.787,180.537 598.5,179C 597.29,177.961 596.29,176.794 595.5,175.5C 596.618,171.629 595.285,170.629 591.5,172.5C 591.5,171.5 591.5,170.5 591.5,169.5 Z"/></g>
<g><path style="opacity:0.996" fill="#beb490" d="M 656.5,207.5 C 658.099,207.232 659.432,207.566 660.5,208.5C 660.5,210.5 660.5,212.5 660.5,214.5C 660.5,313.5 660.5,412.5 660.5,511.5C 660.737,512.791 660.404,513.791 659.5,514.5C 659.5,412.5 659.5,310.5 659.5,208.5C 658.209,208.737 657.209,208.404 656.5,207.5 Z"/></g>
<g><path style="opacity:0.145" fill="#d0c2a2" d="M 101.5,215.5 C 101.727,316.624 101.394,417.624 100.5,518.5C 99.5006,420.335 99.1672,322.001 99.5,223.5C 100.167,220.833 100.833,218.167 101.5,215.5 Z"/></g>
<g><path style="opacity:0.995" fill="#efdeb2" d="M 116.5,225.5 C 116.334,240.811 116.667,255.811 117.5,270.5C 116.833,271.833 116.167,273.167 115.5,274.5C 116.564,279.849 116.564,285.016 115.5,290C 117.513,290.875 117.513,292.209 115.5,294C 116.167,296.333 116.833,298.667 117.5,301C 116.833,302 116.167,303 115.5,304C 116.503,311.324 116.503,318.824 115.5,326.5C 116.739,328.311 117.406,330.311 117.5,332.5C 117.475,339.664 117.475,346.831 117.5,354C 116.678,357.141 116.011,360.307 115.5,363.5C 114.761,363.369 114.094,363.536 113.5,364C 112.915,365.302 112.249,366.469 111.5,367.5C 111.5,324.5 111.5,281.5 111.5,238.5C 111.334,230.16 111.5,221.827 112,213.5C 113.918,209.968 115.418,209.968 116.5,213.5C 115.358,217.304 115.358,221.304 116.5,225.5 Z"/></g>
<g><path style="opacity:1" fill="#523f1b" d="M 129.5,210.5 C 129.5,211.167 129.167,211.5 128.5,211.5C 127.662,211.842 127.328,212.508 127.5,213.5C 126.857,316.342 126.191,412.675 125.5,502.5C 124.833,114.5 124.167,114.5 123.5,502.5C 122.498,412.509 122.165,315.176 122.5,210.5C 122.5,210.167 122.5,209.833 122.5,209.5C 123.967,209.106 125.467,208.773 127,208.5C 128.376,208.684 129.209,209.351 129.5,210.5 Z"/></g>
<g><path style="opacity:0.996" fill="#5e4622" d="M 125.5,502.5 C 124.833,502.5 124.167,502.5 123.5,502.5C 124.167,114.5 124.833,114.5 125.5,502.5 Z"/></g>
<g><path style="opacity:0.318" fill="#e4d5b7" d="M 677.5,197.5 C 678.966,198.347 679.8,199.68 680,201.5C 680.394,230.617 680.894,259.617 681.5,288.5C 680.732,289.263 680.232,290.263 680,291.5C 679.833,297.167 679.667,302.833 679.5,308.5C 679.302,316.726 679.969,324.726 681.5,332.5C 681.5,335.5 681.5,338.5 681.5,341.5C 680.71,340.391 680.21,339.058 680,337.5C 679.831,352.006 679.331,366.339 678.5,380.5C 678.826,319.458 678.492,258.458 677.5,197.5 Z"/></g>
<g><path style="opacity:0.995" fill="#ebdfb9" d="M 119.5,212.5 C 119.833,312.335 119.499,412.001 118.5,511.5C 116.618,504.545 116.285,497.545 117.5,490.5C 117.515,485.24 116.849,480.073 115.5,475C 117.85,471.018 117.85,467.018 115.5,463C 118.169,456.54 117.836,450.54 114.5,445C 115.574,444.261 116.241,443.261 116.5,442C 115.351,440.27 115.351,438.604 116.5,437C 115.106,436.044 114.439,434.711 114.5,433C 115.103,429.819 115.769,426.653 116.5,423.5C 115.641,411.976 115.641,399.809 116.5,387C 116.333,384.833 116.167,382.667 116,380.5C 114,379.5 114,378.5 116,377.5C 116.717,372.78 116.55,368.114 115.5,363.5C 116.011,360.307 116.678,357.141 117.5,354C 117.475,346.831 117.475,339.664 117.5,332.5C 117.406,330.311 116.739,328.311 115.5,326.5C 116.503,318.824 116.503,311.324 115.5,304C 116.167,303 116.833,302 117.5,301C 116.833,298.667 116.167,296.333 115.5,294C 117.513,292.209 117.513,290.875 115.5,290C 116.564,285.016 116.564,279.849 115.5,274.5C 116.167,273.167 116.833,271.833 117.5,270.5C 116.667,255.811 116.334,240.811 116.5,225.5C 117.117,225.389 117.617,225.056 118,224.5C 118.717,220.955 118.55,217.455 117.5,214C 117.836,212.97 118.503,212.47 119.5,212.5 Z"/></g>
<g><path style="opacity:0.996" fill="#4f3d18" d="M 658.5,512.5 C 656.503,443.175 655.837,373.508 656.5,303.5C 656.333,272.165 656.5,240.832 657,209.5C 657.333,209.833 657.667,210.167 658,210.5C 658.5,311.166 658.667,411.833 658.5,512.5 Z"/></g>
<g><path style="opacity:0.063" fill="#fef1af" d="M 681.5,288.5 C 681.268,303.197 681.268,317.864 681.5,332.5C 679.969,324.726 679.302,316.726 679.5,308.5C 679.667,302.833 679.833,297.167 680,291.5C 680.232,290.263 680.732,289.263 681.5,288.5 Z"/></g>
<g><path style="opacity:0.284" fill="#c8b693" d="M 651.5,211.5 C 652.499,311.665 652.833,411.999 652.5,512.5C 652.167,512.5 651.833,512.5 651.5,512.5C 651.5,481.5 651.5,450.5 651.5,419.5C 651.116,393.516 651.116,367.516 651.5,341.5C 651.5,298.167 651.5,254.833 651.5,211.5 Z"/></g>
<g><path style="opacity:0.993" fill="#f2e4bc" d="M 111.5,238.5 C 111.5,281.5 111.5,324.5 111.5,367.5C 111.23,381.021 111.564,394.521 112.5,408C 111.81,445.75 111.143,483.25 110.5,520.5C 109.501,429.668 109.167,338.668 109.5,247.5C 110.167,244.5 110.833,241.5 111.5,238.5 Z"/></g>
<g><path style="opacity:0.996" fill="#584421" d="M 656.5,303.5 C 655.837,373.508 656.503,443.175 658.5,512.5C 658.5,513.167 658.5,513.833 658.5,514.5C 657.415,516.587 655.749,517.92 653.5,518.5C 652.078,518.25 651.078,517.417 650.5,516C 651.823,515.184 652.489,514.017 652.5,512.5C 653.167,412.333 653.833,311.999 654.5,211.5C 655.167,242.331 655.833,272.997 656.5,303.5 Z"/></g>
<g><path style="opacity:0.993" fill="#988a63" d="M 122.5,209.5 C 122.5,209.833 122.5,210.167 122.5,210.5C 121.501,311.665 121.167,412.999 121.5,514.5C 120.501,413.335 120.167,312.001 120.5,210.5C 120.842,209.662 121.508,209.328 122.5,209.5 Z"/></g>
<g><path style="opacity:0.995" fill="#f0deb2" d="M 115.5,363.5 C 116.55,368.114 116.717,372.78 116,377.5C 114,378.5 114,379.5 116,380.5C 116.167,382.667 116.333,384.833 116.5,387C 115.641,399.809 115.641,411.976 116.5,423.5C 115.769,426.653 115.103,429.819 114.5,433C 114.439,434.711 115.106,436.044 116.5,437C 115.351,438.604 115.351,440.27 116.5,442C 116.241,443.261 115.574,444.261 114.5,445C 117.836,450.54 118.169,456.54 115.5,463C 117.85,467.018 117.85,471.018 115.5,475C 116.849,480.073 117.515,485.24 117.5,490.5C 116.285,497.545 116.618,504.545 118.5,511.5C 117.346,514.062 116.012,516.562 114.5,519C 116,519.5 117.5,520 119,520.5C 120.789,519.591 122.623,519.424 124.5,520C 127.704,522.869 130.537,526.035 133,529.5C 133.414,529.043 133.914,528.709 134.5,528.5C 139.999,530.718 142.999,534.718 143.5,540.5C 140.033,540.554 137.366,539.054 135.5,536C 132.802,536.01 130.469,534.677 128.5,532C 126.608,531.027 124.608,530.36 122.5,530C 121.107,528.829 120.273,527.329 120,525.5C 118.586,526.413 117.086,526.413 115.5,525.5C 113.596,525.262 112.262,524.262 111.5,522.5C 111.167,521.833 110.833,521.167 110.5,520.5C 111.143,483.25 111.81,445.75 112.5,408C 111.564,394.521 111.23,381.021 111.5,367.5C 112.249,366.469 112.915,365.302 113.5,364C 114.094,363.536 114.761,363.369 115.5,363.5 Z"/></g>
<g><path style="opacity:0.818" fill="#6f5e40" d="M 105.5,198.5 C 105.539,199.756 105.039,200.756 104,201.5C 103.5,210.16 103.334,218.827 103.5,227.5C 103.5,324.167 103.5,420.833 103.5,517.5C 103.166,520.188 103.832,522.521 105.5,524.5C 104.5,524.5 103.5,524.5 102.5,524.5C 102.829,416.126 102.496,307.793 101.5,199.5C 102.708,198.766 104.041,198.433 105.5,198.5 Z"/></g>
<g><path style="opacity:0.998" fill="#594520" d="M 108.5,201.5 C 108.5,201.833 108.5,202.167 108.5,202.5C 107.667,307.999 107.167,413.666 107,519.5C 106.111,520.888 105.611,520.722 105.5,519C 106.547,517.422 106.547,515.922 105.5,514.5C 104.824,515.602 104.158,516.602 103.5,517.5C 103.5,420.833 103.5,324.167 103.5,227.5C 104.794,225.952 105.461,223.952 105.5,221.5C 103.625,214.181 104.292,207.181 107.5,200.5C 108.107,200.624 108.44,200.957 108.5,201.5 Z"/></g>
<g><path style="opacity:0.027" fill="#817a63" d="M 129.5,375.5 C 130.732,389.407 130.732,402.74 129.5,415.5C 128.167,402.167 128.167,388.833 129.5,375.5 Z"/></g>
<g><path style="opacity:0.996" fill="#efdeb2" d="M 667.5,288.5 C 667.615,291.421 667.282,294.421 666.5,297.5C 665.939,347.636 665.939,398.636 666.5,450.5C 666.68,454.045 666.014,457.378 664.5,460.5C 663.178,447.271 663.178,434.104 664.5,421C 663.877,418.393 663.21,415.893 662.5,413.5C 662.5,412.833 662.5,412.167 662.5,411.5C 663.19,406.767 663.856,401.934 664.5,397C 663.542,395.853 663.875,394.853 665.5,394C 664.152,392.426 663.486,390.593 663.5,388.5C 664.39,385.391 664.39,382.225 663.5,379C 663.543,375.832 664.209,372.832 665.5,370C 665,369.5 664.5,369 664,368.5C 663.833,365 663.667,361.5 663.5,358C 663.537,337.479 663.537,316.979 663.5,296.5C 663.667,292.833 663.833,289.167 664,285.5C 664.414,285.043 664.914,284.709 665.5,284.5C 666.172,285.949 666.839,287.282 667.5,288.5 Z"/></g>
<g><path style="opacity:0.445" fill="#9e9075" d="M 101.5,199.5 C 102.496,307.793 102.829,416.126 102.5,524.5C 103.5,524.5 104.5,524.5 105.5,524.5C 126.098,539.434 146.098,555.101 165.5,571.5C 165.5,572.5 165.5,573.5 165.5,574.5C 144.842,557.844 123.842,541.677 102.5,526C 100.887,523.772 100.22,521.272 100.5,518.5C 101.394,417.624 101.727,316.624 101.5,215.5C 101.324,212.273 100.657,209.273 99.5,206.5C 99.7215,203.933 100.388,201.599 101.5,199.5 Z"/></g>
<g><path style="opacity:0.992" fill="#b5a884" d="M 112.5,199.5 C 111.878,200.627 111.045,201.627 110,202.5C 109.5,217.496 109.333,232.496 109.5,247.5C 109.167,338.668 109.501,429.668 110.5,520.5C 110.833,521.167 111.167,521.833 111.5,522.5C 110.504,522.586 109.671,522.252 109,521.5C 108.5,415.167 108.333,308.834 108.5,202.5C 108.5,202.167 108.5,201.833 108.5,201.5C 109.605,200.4 110.938,199.733 112.5,199.5 Z"/></g>
<g><path style="opacity:0.996" fill="#e2d5b0" d="M 669.5,201.5 C 671.498,307.161 672.165,413.161 671.5,519.5C 671.473,521.199 670.806,522.533 669.5,523.5C 665.021,526.243 660.688,529.243 656.5,532.5C 656.383,530.516 657.05,528.85 658.5,527.5C 661.799,525.374 664.799,523.041 667.5,520.5C 668.666,447.334 668.832,374.001 668,300.5C 667.768,299.263 667.268,298.263 666.5,297.5C 667.282,294.421 667.615,291.421 667.5,288.5C 668.779,270.515 668.779,252.515 667.5,234.5C 666.808,235.025 666.308,235.692 666,236.5C 665.833,235.833 665.667,235.167 665.5,234.5C 668.011,223.735 669.345,212.735 669.5,201.5 Z"/></g>
<g><path style="opacity:0.996" fill="#eadfb8" d="M 662.5,411.5 C 662.5,412.167 662.5,412.833 662.5,413.5C 662.487,437.24 662.487,460.907 662.5,484.5C 663.138,493.895 662.471,502.895 660.5,511.5C 660.5,412.5 660.5,313.5 660.5,214.5C 661.117,214.389 661.617,214.056 662,213.5C 662.167,227.5 662.333,241.5 662.5,255.5C 661.962,307.233 661.962,359.233 662.5,411.5 Z"/></g>
<g><path style="opacity:0.586" fill="#9e9073" d="M 674.5,197.5 C 675.5,197.5 676.5,197.5 677.5,197.5C 678.492,258.458 678.826,319.458 678.5,380.5C 678.5,389.167 678.5,397.833 678.5,406.5C 678.5,445.833 678.5,485.167 678.5,524.5C 676.427,527.745 673.76,530.578 670.5,533C 663.657,537.689 656.99,542.523 650.5,547.5C 648.179,548.477 645.846,549.477 643.5,550.5C 653.929,541.067 664.929,532.4 676.5,524.5C 677.5,490.84 677.833,457.173 677.5,423.5C 677.667,349.833 677.5,276.166 677,202.5C 676.634,200.548 675.801,198.882 674.5,197.5 Z"/></g>
<g><path style="opacity:0.02" fill="#fae2c2" d="M 681.5,341.5 C 681,396.72 680.667,452.054 680.5,507.5C 679.833,473.833 679.167,440.167 678.5,406.5C 678.5,397.833 678.5,389.167 678.5,380.5C 679.331,366.339 679.831,352.006 680,337.5C 680.21,339.058 680.71,340.391 681.5,341.5 Z"/></g>
<g><path style="opacity:0.996" fill="#e9dcb2" d="M 666.5,297.5 C 667.268,298.263 667.768,299.263 668,300.5C 668.832,374.001 668.666,447.334 667.5,520.5C 667.716,517.651 667.049,514.651 665.5,511.5C 667.748,504.583 667.748,497.75 665.5,491C 666.624,490.161 667.291,488.994 667.5,487.5C 666.995,482.928 666.328,478.428 665.5,474C 666.919,470.837 666.585,467.837 664.5,465C 665.34,463.334 664.84,463.167 663,464.5C 662.687,467.595 663.187,470.595 664.5,473.5C 663.752,477.157 663.085,480.823 662.5,484.5C 662.487,460.907 662.487,437.24 662.5,413.5C 663.21,415.893 663.877,418.393 664.5,421C 663.178,434.104 663.178,447.271 664.5,460.5C 666.014,457.378 666.68,454.045 666.5,450.5C 665.939,398.636 665.939,347.636 666.5,297.5 Z"/></g>
<g><path style="opacity:0.996" fill="#8d825d" d="M 128.5,211.5 C 128.168,265.336 128.501,319.003 129.5,372.5C 130.116,373.798 130.116,374.798 129.5,375.5C 128.167,388.833 128.167,402.167 129.5,415.5C 130.506,416.396 130.506,417.062 129.5,417.5C 128.502,448.996 128.168,480.662 128.5,512.5C 127.501,413.001 127.167,313.335 127.5,213.5C 127.328,212.508 127.662,211.842 128.5,211.5 Z"/></g>
<g><path style="opacity:0.174" fill="#d7c5a5" d="M 678.5,406.5 C 679.167,440.167 679.833,473.833 680.5,507.5C 680.666,511.846 680.499,516.179 680,520.5C 679.79,522.058 679.29,523.391 678.5,524.5C 678.5,485.167 678.5,445.833 678.5,406.5 Z"/></g>
<g><path style="opacity:0.539" fill="#e8d6b0" d="M 651.5,419.5 C 651.5,450.5 651.5,481.5 651.5,512.5C 646.381,516.117 641.714,520.283 637.5,525C 633.266,528.082 628.933,530.916 624.5,533.5C 632.096,527.009 639.263,520.009 646,512.5C 648.743,506.476 650.243,500.142 650.5,493.5C 649.377,471.514 649.21,449.514 650,427.5C 650.183,424.635 650.683,421.969 651.5,419.5 Z"/></g>
<g><path style="opacity:0.996" fill="#5f4924" d="M 674.5,262.5 C 675.222,262.918 675.722,263.584 676,264.5C 676.5,317.499 676.667,370.499 676.5,423.5C 676.667,456.502 676.5,489.502 676,522.5C 674.5,524 673,525.5 671.5,527C 668.066,528.394 664.733,529.728 661.5,531C 664.666,529 667.332,526.5 669.5,523.5C 670.806,522.533 671.473,521.199 671.5,519.5C 671.833,519.5 672.167,519.5 672.5,519.5C 672.281,520.675 672.614,521.675 673.5,522.5C 674.5,435.836 674.833,349.169 674.5,262.5 Z"/></g>
<g><path style="opacity:1" fill="#503b13" d="M 674.5,262.5 C 674.833,349.169 674.5,435.836 673.5,522.5C 672.614,521.675 672.281,520.675 672.5,519.5C 672.333,413.166 672.5,306.833 673,200.5C 674.477,221.075 674.977,241.741 674.5,262.5 Z"/></g>
<g><path style="opacity:0.491" fill="#f1dfb1" d="M 140.5,496.5 C 141.496,496.414 142.329,496.748 143,497.5C 147.925,506.353 153.591,514.686 160,522.5C 160.667,523.167 160.667,523.833 160,524.5C 158.269,522.383 156.102,520.883 153.5,520C 149.044,515.054 144.377,510.387 139.5,506C 140.451,502.943 140.784,499.777 140.5,496.5 Z"/></g>
<g><path style="opacity:0.49" fill="#dbcba5" d="M 129.5,417.5 C 130.81,426.451 130.81,435.451 129.5,444.5C 129.719,445.938 130.219,447.271 131,448.5C 131.833,459.5 132.667,470.5 133.5,481.5C 132.5,491.488 132.334,501.488 133,511.5C 135.202,512.913 137.368,514.413 139.5,516C 142.394,520.663 146.06,524.497 150.5,527.5C 149.833,527.5 149.167,527.5 148.5,527.5C 141.244,523.238 134.577,518.238 128.5,512.5C 128.168,480.662 128.502,448.996 129.5,417.5 Z"/></g>
<g><path style="opacity:0.996" fill="#eddcb1" d="M 667.5,520.5 C 664.799,523.041 661.799,525.374 658.5,527.5C 657.05,528.85 656.383,530.516 656.5,532.5C 655.564,533.974 654.23,534.974 652.5,535.5C 652.013,534.527 651.513,533.527 651,532.5C 648.049,536.285 644.215,538.618 639.5,539.5C 639.649,540.552 639.483,541.552 639,542.5C 636.749,544.377 634.249,545.877 631.5,547C 630.107,548.171 629.273,549.671 629,551.5C 625.993,552.821 623.826,554.321 622.5,556C 622.833,556.333 623.167,556.667 623.5,557C 620.733,557.056 618.067,557.222 615.5,557.5C 614.253,555.994 614.253,554.494 615.5,553C 614.244,552.583 613.577,551.75 613.5,550.5C 614.625,548.871 615.959,547.371 617.5,546C 629.748,537.056 641.748,527.889 653.5,518.5C 655.749,517.92 657.415,516.587 658.5,514.5C 658.833,514.5 659.167,514.5 659.5,514.5C 660.404,513.791 660.737,512.791 660.5,511.5C 662.471,502.895 663.138,493.895 662.5,484.5C 663.085,480.823 663.752,477.157 664.5,473.5C 663.187,470.595 662.687,467.595 663,464.5C 664.84,463.167 665.34,463.334 664.5,465C 666.585,467.837 666.919,470.837 665.5,474C 666.328,478.428 666.995,482.928 667.5,487.5C 667.291,488.994 666.624,490.161 665.5,491C 667.748,497.75 667.748,504.583 665.5,511.5C 667.049,514.651 667.716,517.651 667.5,520.5 Z"/></g>
<g><path style="opacity:0.996" fill="#5e4c27" d="M 122.5,210.5 C 122.165,315.176 122.498,412.509 123.5,502.5C 124.167,502.5 124.833,502.5 125.5,502.5C 126.191,412.675 126.857,316.342 127.5,213.5C 127.167,313.335 127.501,413.001 128.5,512.5C 134.577,518.238 141.244,523.238 148.5,527.5C 152.215,531.537 156.548,534.87 161.5,537.5C 166.167,540.5 170.833,543.5 175.5,546.5C 175.351,547.552 175.517,548.552 176,549.5C 177.878,550.053 179.378,551.053 180.5,552.5C 178.565,551.85 176.565,551.517 174.5,551.5C 174.433,552.959 174.766,554.292 175.5,555.5C 165.238,548.578 155.238,541.244 145.5,533.5C 137.461,527.156 129.461,520.822 121.5,514.5C 121.167,412.999 121.501,311.665 122.5,210.5 Z"/></g>
<g><path style="opacity:0.145" fill="#aa9470" d="M 148.5,527.5 C 149.167,527.5 149.833,527.5 150.5,527.5C 154.192,530.862 157.859,534.195 161.5,537.5C 156.548,534.87 152.215,531.537 148.5,527.5 Z"/></g>
<g><path style="opacity:0.996" fill="#6f5c36" d="M 651.5,512.5 C 651.833,512.5 652.167,512.5 652.5,512.5C 652.489,514.017 651.823,515.184 650.5,516C 651.078,517.417 652.078,518.25 653.5,518.5C 641.748,527.889 629.748,537.056 617.5,546C 615.959,547.371 614.625,548.871 613.5,550.5C 608.909,553.085 604.576,556.085 600.5,559.5C 596.5,559.5 592.5,559.5 588.5,559.5C 589.585,557.418 591.085,557.084 593,558.5C 593.692,557.975 594.192,557.308 594.5,556.5C 542.171,555.5 489.838,555.167 437.5,555.5C 352.332,555.833 267.332,555.499 182.5,554.5C 209.833,554.5 237.167,554.5 264.5,554.5C 265.5,554.5 266.5,554.5 267.5,554.5C 377.834,554.667 488.167,554.5 598.5,554C 606.753,547.721 614.753,541.221 622.5,534.5C 622.842,533.662 623.508,533.328 624.5,533.5C 628.933,530.916 633.266,528.082 637.5,525C 641.714,520.283 646.381,516.117 651.5,512.5 Z"/></g>
<g><path style="opacity:0.996" fill="#e2d4ac" d="M 120.5,210.5 C 120.167,312.001 120.501,413.335 121.5,514.5C 129.461,520.822 137.461,527.156 145.5,533.5C 146.58,535.045 146.58,536.545 145.5,538C 145.903,539.473 146.57,540.806 147.5,542C 146.376,542.249 145.376,542.749 144.5,543.5C 146.024,545.858 148.024,547.691 150.5,549C 148.311,549.322 146.311,548.822 144.5,547.5C 134.26,540.927 124.594,533.594 115.5,525.5C 117.086,526.413 118.586,526.413 120,525.5C 120.273,527.329 121.107,528.829 122.5,530C 124.608,530.36 126.608,531.027 128.5,532C 130.469,534.677 132.802,536.01 135.5,536C 137.366,539.054 140.033,540.554 143.5,540.5C 142.999,534.718 139.999,530.718 134.5,528.5C 133.914,528.709 133.414,529.043 133,529.5C 130.537,526.035 127.704,522.869 124.5,520C 122.623,519.424 120.789,519.591 119,520.5C 117.5,520 116,519.5 114.5,519C 116.012,516.562 117.346,514.062 118.5,511.5C 119.499,412.001 119.833,312.335 119.5,212.5C 119.328,211.508 119.662,210.842 120.5,210.5 Z"/></g>
<g><path style="opacity:0.996" fill="#624f2d" d="M 108.5,202.5 C 108.333,308.834 108.5,415.167 109,521.5C 109.671,522.252 110.504,522.586 111.5,522.5C 112.262,524.262 113.596,525.262 115.5,525.5C 124.594,533.594 134.26,540.927 144.5,547.5C 150.926,553.594 157.926,558.927 165.5,563.5C 166.96,565.463 168.627,567.296 170.5,569C 317.166,569.5 463.833,569.667 610.5,569.5C 464.001,570.333 317.334,570.833 170.5,571C 169.833,571.333 169.167,571.667 168.5,572C 193.828,572.007 219.161,571.84 244.5,571.5C 268.021,571.299 291.354,571.966 314.5,573.5C 265.499,573.667 216.499,573.5 167.5,573C 166.956,572.283 166.289,571.783 165.5,571.5C 146.098,555.101 126.098,539.434 105.5,524.5C 103.832,522.521 103.166,520.188 103.5,517.5C 104.158,516.602 104.824,515.602 105.5,514.5C 106.547,515.922 106.547,517.422 105.5,519C 105.611,520.722 106.111,520.888 107,519.5C 107.167,413.666 107.667,307.999 108.5,202.5 Z"/></g>
<g><path style="opacity:0.996" fill="#e8d8ae" d="M 145.5,533.5 C 155.238,541.244 165.238,548.578 175.5,555.5C 176.262,557.262 177.596,558.262 179.5,558.5C 179.611,559.117 179.944,559.617 180.5,560C 228.499,560.5 276.499,560.667 324.5,560.5C 324.5,560.833 324.5,561.167 324.5,561.5C 273.155,561.159 228.488,561.493 190.5,562.5C 192.607,563.468 194.941,563.802 197.5,563.5C 197.5,564.5 197.5,565.5 197.5,566.5C 189.826,566.666 182.159,566.5 174.5,566C 169.395,564.705 169.395,563.038 174.5,561C 171.386,559.913 169.053,560.746 167.5,563.5C 166.833,563.5 166.167,563.5 165.5,563.5C 157.926,558.927 150.926,553.594 144.5,547.5C 146.311,548.822 148.311,549.322 150.5,549C 148.024,547.691 146.024,545.858 144.5,543.5C 145.376,542.749 146.376,542.249 147.5,542C 146.57,540.806 145.903,539.473 145.5,538C 146.58,536.545 146.58,535.045 145.5,533.5 Z"/></g>
<g><path style="opacity:0.428" fill="#f0deb0" d="M 170.5,533.5 C 170.56,532.957 170.893,532.624 171.5,532.5C 178.364,536.385 185.697,539.052 193.5,540.5C 193.072,543.246 191.406,544.913 188.5,545.5C 182.161,541.998 176.161,537.998 170.5,533.5 Z"/></g>
<g><path style="opacity:0.251" fill="#f3e2b0" d="M 295.5,541.5 C 311.274,543.19 326.941,544.19 342.5,544.5C 341.135,545.456 339.635,546.122 338,546.5C 326.352,545.532 314.685,545.532 303,546.5C 295.246,545.683 287.412,545.183 279.5,545C 284.755,543.152 290.088,541.985 295.5,541.5 Z"/></g>
<g><path style="opacity:0.031" fill="#f8ebb0" d="M 590.5,544.5 C 594.099,544.262 594.433,545.262 591.5,547.5C 589.481,546.867 589.147,545.867 590.5,544.5 Z"/></g>
<g><path style="opacity:1" fill="#64512e" d="M 676.5,423.5 C 676.833,423.5 677.167,423.5 677.5,423.5C 677.833,457.173 677.5,490.84 676.5,524.5C 664.929,532.4 653.929,541.067 643.5,550.5C 634.167,556.833 624.833,563.167 615.5,569.5C 615.631,568.624 615.298,567.957 614.5,567.5C 613.378,568.63 612.044,569.297 610.5,569.5C 610.5,569.167 610.5,568.833 610.5,568.5C 624.811,557.851 638.811,546.851 652.5,535.5C 654.23,534.974 655.564,533.974 656.5,532.5C 660.688,529.243 665.021,526.243 669.5,523.5C 667.332,526.5 664.666,529 661.5,531C 664.733,529.728 668.066,528.394 671.5,527C 673,525.5 674.5,524 676,522.5C 676.5,489.502 676.667,456.502 676.5,423.5 Z"/></g>
<g><path style="opacity:0.035" fill="#c4b391" d="M 650.5,547.5 C 646.693,551.135 642.693,554.635 638.5,558C 631.269,563.411 623.936,568.578 616.5,573.5C 617.614,572.115 618.614,570.615 619.5,569C 625.78,565.203 631.78,561.036 637.5,556.5C 639.576,554.485 641.576,552.485 643.5,550.5C 645.846,549.477 648.179,548.477 650.5,547.5 Z"/></g>
<g><path style="opacity:0.3" fill="#efe1bb" d="M 259.5,553.5 C 236.5,553.5 213.5,553.5 190.5,553.5C 191.134,552.053 192.301,551.387 194,551.5C 198.839,553.06 203.506,552.727 208,550.5C 224.907,551.852 242.074,552.852 259.5,553.5 Z"/></g>
<g><path style="opacity:0.762" fill="#f1e1b7" d="M 405.5,553.5 C 384.5,553.5 363.5,553.5 342.5,553.5C 347.949,552.149 353.616,551.315 359.5,551C 360,550.5 360.5,550 361,549.5C 367.583,551.65 374.25,551.983 381,550.5C 389.247,551.667 397.414,552.667 405.5,553.5 Z"/></g>
<g><path style="opacity:0.322" fill="#ecdeb7" d="M 551.5,553.5 C 506.833,553.5 462.167,553.5 417.5,553.5C 427.58,552.228 437.747,550.895 448,549.5C 451.745,550.297 455.579,550.797 459.5,551C 490.331,551.777 520.998,552.61 551.5,553.5 Z"/></g>
<g><path style="opacity:0.186" fill="#cbbd99" d="M 175.5,546.5 C 178.621,548.448 181.621,550.615 184.5,553C 186.473,553.495 188.473,553.662 190.5,553.5C 213.5,553.5 236.5,553.5 259.5,553.5C 261.415,553.216 263.081,553.549 264.5,554.5C 237.167,554.5 209.833,554.5 182.5,554.5C 181.5,554.167 180.833,553.5 180.5,552.5C 179.378,551.053 177.878,550.053 176,549.5C 175.517,548.552 175.351,547.552 175.5,546.5 Z"/></g>
<g><path style="opacity:0.241" fill="#d4c49f" d="M 622.5,534.5 C 614.753,541.221 606.753,547.721 598.5,554C 488.167,554.5 377.834,554.667 267.5,554.5C 279.526,553.805 291.693,553.138 304,552.5C 317.023,552.959 329.856,553.293 342.5,553.5C 363.5,553.5 384.5,553.5 405.5,553.5C 409.5,553.5 413.5,553.5 417.5,553.5C 462.167,553.5 506.833,553.5 551.5,553.5C 564.193,552.646 576.86,552.48 589.5,553C 592.423,550.352 595.923,548.852 600,548.5C 607.311,543.433 614.811,538.766 622.5,534.5 Z"/></g>
<g><path style="opacity:0.955" fill="#5e4b25" d="M 180.5,552.5 C 180.833,553.5 181.5,554.167 182.5,554.5C 267.332,555.499 352.332,555.833 437.5,555.5C 436.402,556.397 436.402,557.23 437.5,558C 480.335,558.167 523.002,558.667 565.5,559.5C 436.793,559.83 308.126,559.496 179.5,558.5C 177.596,558.262 176.262,557.262 175.5,555.5C 174.766,554.292 174.433,552.959 174.5,551.5C 176.565,551.517 178.565,551.85 180.5,552.5 Z"/></g>
<g><path style="opacity:0.995" fill="#5b4620" d="M 437.5,555.5 C 489.838,555.167 542.171,555.5 594.5,556.5C 594.192,557.308 593.692,557.975 593,558.5C 591.085,557.084 589.585,557.418 588.5,559.5C 580.833,559.5 573.167,559.5 565.5,559.5C 523.002,558.667 480.335,558.167 437.5,558C 436.402,557.23 436.402,556.397 437.5,555.5 Z"/></g>
<g><path style="opacity:0.555" fill="#8c7d5f" d="M 179.5,558.5 C 308.126,559.496 436.793,559.83 565.5,559.5C 573.167,559.5 580.833,559.5 588.5,559.5C 592.5,559.5 596.5,559.5 600.5,559.5C 597.038,560.482 593.371,560.815 589.5,560.5C 563.167,560.5 536.833,560.5 510.5,560.5C 448.5,560.5 386.5,560.5 324.5,560.5C 276.499,560.667 228.499,560.5 180.5,560C 179.944,559.617 179.611,559.117 179.5,558.5 Z"/></g>
<g><path style="opacity:0.157" fill="#b9b08f" d="M 324.5,561.5 C 324.5,561.167 324.5,560.833 324.5,560.5C 386.5,560.5 448.5,560.5 510.5,560.5C 462.5,561.167 414.5,561.833 366.5,562.5C 353.958,562.55 341.624,562.55 329.5,562.5C 328.081,561.549 326.415,561.216 324.5,561.5 Z"/></g>
<g><path style="opacity:0.252" fill="#dad0a0" d="M 510.5,560.5 C 536.833,560.5 563.167,560.5 589.5,560.5C 581.016,561.493 572.349,561.826 563.5,561.5C 563.5,562.5 563.5,563.5 563.5,564.5C 559.952,564.905 556.619,564.405 553.5,563C 491.168,562.5 428.834,562.333 366.5,562.5C 414.5,561.833 462.5,561.167 510.5,560.5 Z"/></g>
<g><path style="opacity:0.937" fill="#eedfb5" d="M 190.5,562.5 C 215.836,562.333 241.169,562.5 266.5,563C 269.043,563.14 271.377,563.806 273.5,565C 269.446,566.941 269.78,567.775 274.5,567.5C 274.5,567.833 274.5,568.167 274.5,568.5C 240.165,568.667 205.832,568.5 171.5,568C 169.959,566.629 168.625,565.129 167.5,563.5C 169.053,560.746 171.386,559.913 174.5,561C 169.395,563.038 169.395,564.705 174.5,566C 182.159,566.5 189.826,566.666 197.5,566.5C 197.5,565.5 197.5,564.5 197.5,563.5C 194.941,563.802 192.607,563.468 190.5,562.5 Z"/></g>
<g><path style="opacity:0.495" fill="#f3e5c2" d="M 324.5,561.5 C 326.415,561.216 328.081,561.549 329.5,562.5C 325.869,562.16 322.536,562.994 319.5,565C 314.5,565.333 309.5,565.667 304.5,566C 313.16,566.5 321.827,566.666 330.5,566.5C 312.007,567.497 293.341,567.83 274.5,567.5C 269.78,567.775 269.446,566.941 273.5,565C 271.377,563.806 269.043,563.14 266.5,563C 241.169,562.5 215.836,562.333 190.5,562.5C 228.488,561.493 273.155,561.159 324.5,561.5 Z"/></g>
<g><path style="opacity:0.904" fill="#eedeb7" d="M 652.5,535.5 C 638.811,546.851 624.811,557.851 610.5,568.5C 603.167,568.5 595.833,568.5 588.5,568.5C 574.167,567.833 559.833,567.167 545.5,566.5C 551.868,566.83 558.202,566.496 564.5,565.5C 564.376,564.893 564.043,564.56 563.5,564.5C 563.5,563.5 563.5,562.5 563.5,561.5C 572.349,561.826 581.016,561.493 589.5,560.5C 593.371,560.815 597.038,560.482 600.5,559.5C 604.576,556.085 608.909,553.085 613.5,550.5C 613.577,551.75 614.244,552.583 615.5,553C 614.253,554.494 614.253,555.994 615.5,557.5C 618.067,557.222 620.733,557.056 623.5,557C 623.167,556.667 622.833,556.333 622.5,556C 623.826,554.321 625.993,552.821 629,551.5C 629.273,549.671 630.107,548.171 631.5,547C 634.249,545.877 636.749,544.377 639,542.5C 639.483,541.552 639.649,540.552 639.5,539.5C 644.215,538.618 648.049,536.285 651,532.5C 651.513,533.527 652.013,534.527 652.5,535.5 Z"/></g>
<g><path style="opacity:0.295" fill="#e1d4b6" d="M 545.5,566.5 C 559.833,567.167 574.167,567.833 588.5,568.5C 483.833,568.5 379.167,568.5 274.5,568.5C 274.5,568.167 274.5,567.833 274.5,567.5C 293.341,567.83 312.007,567.497 330.5,566.5C 401.957,566.042 473.623,566.042 545.5,566.5 Z"/></g>
<g><path style="opacity:0.707" fill="#a89a7b" d="M 165.5,563.5 C 166.167,563.5 166.833,563.5 167.5,563.5C 168.625,565.129 169.959,566.629 171.5,568C 205.832,568.5 240.165,568.667 274.5,568.5C 379.167,568.5 483.833,568.5 588.5,568.5C 595.833,568.5 603.167,568.5 610.5,568.5C 610.5,568.833 610.5,569.167 610.5,569.5C 463.833,569.667 317.166,569.5 170.5,569C 168.627,567.296 166.96,565.463 165.5,563.5 Z"/></g>
<g><path style="opacity:0.99" fill="#584322" d="M 615.5,569.5 C 615.5,569.833 615.5,570.167 615.5,570.5C 528.195,571.326 440.861,571.826 353.5,572C 354.056,572.383 354.389,572.883 354.5,573.5C 341.167,573.5 327.833,573.5 314.5,573.5C 291.354,571.966 268.021,571.299 244.5,571.5C 219.161,571.84 193.828,572.007 168.5,572C 169.167,571.667 169.833,571.333 170.5,571C 317.334,570.833 464.001,570.333 610.5,569.5C 612.044,569.297 613.378,568.63 614.5,567.5C 615.298,567.957 615.631,568.624 615.5,569.5 Z"/></g>
<g><path style="opacity:0.92" fill="#5f4b2b" d="M 615.5,570.5 C 614.571,571.315 613.571,572.148 612.5,573C 526.501,573.5 440.501,573.667 354.5,573.5C 354.389,572.883 354.056,572.383 353.5,572C 440.861,571.826 528.195,571.326 615.5,570.5 Z"/></g>
<g><path style="opacity:0.654" fill="#84795c" d="M 643.5,550.5 C 641.576,552.485 639.576,554.485 637.5,556.5C 631.78,561.036 625.78,565.203 619.5,569C 618.614,570.615 617.614,572.115 616.5,573.5C 616.5,574.167 616.167,574.5 615.5,574.5C 465.5,574.5 315.5,574.5 165.5,574.5C 165.5,573.5 165.5,572.5 165.5,571.5C 166.289,571.783 166.956,572.283 167.5,573C 216.499,573.5 265.499,573.667 314.5,573.5C 327.833,573.5 341.167,573.5 354.5,573.5C 440.501,573.667 526.501,573.5 612.5,573C 613.571,572.148 614.571,571.315 615.5,570.5C 615.5,570.167 615.5,569.833 615.5,569.5C 624.833,563.167 634.167,556.833 643.5,550.5 Z"/></g>
<g><path style="opacity:0.301" fill="#bbb297" d="M 165.5,574.5 C 315.5,574.5 465.5,574.5 615.5,574.5C 615.082,575.222 614.416,575.722 613.5,576C 464.5,576.667 315.5,576.667 166.5,576C 165.944,575.617 165.611,575.117 165.5,574.5 Z"/></g>
</svg>
