<?xml version="1.0" standalone="no"?><!DOCTYPE svg PUBLIC "-//W3C//DTD SVG 1.1//EN" "http://www.w3.org/Graphics/SVG/1.1/DTD/svg11.dtd"><svg t="1745234927624" class="icon" viewBox="0 0 1024 1024" version="1.1" xmlns="http://www.w3.org/2000/svg" p-id="4826" xmlns:xlink="http://www.w3.org/1999/xlink" width="200" height="200"><path d="M511.2 134.3L634 383.1l274.4 39.8-198.6 193.6 47 273.4-245.5-129-245.5 129 46.9-273.4L114 422.9l274.5-39.8 122.7-248.8z m0 0" fill="#FFB533" p-id="4827"></path><path d="M265.7 893.9c-0.9 0-1.7-0.2-2.3-0.8-1.3-0.9-1.8-2.4-1.6-3.9l46.5-271.3-197-192.2c-1.1-1-1.5-2.6-1-4.1 0.5-1.4 1.7-2.5 3.3-2.7L386 379.3l121.8-246.7c1.4-2.7 5.7-2.7 7.1 0l121.8 246.9L909 419.1c1.5 0.2 2.8 1.3 3.3 2.7 0.5 1.4 0.1 3-1 4.1l-197.2 192 46.5 271.3c0.2 1.5-0.3 3-1.6 3.9-1.2 0.9-2.8 1-4.2 0.3L511.2 765.3 267.6 893.5c-0.7 0.2-1.3 0.4-1.9 0.4z m245.5-137c0.6 0 1.3 0.2 1.8 0.5l238.4 125.4L706 617.2c-0.2-1.3 0.2-2.6 1.1-3.5l192.9-188L633.4 387c-1.3-0.2-2.4-1-3-2.2L511.2 143.2 392 384.7c-0.6 1.2-1.7 2-3 2.2l-266.5 38.8 192.9 188c1 0.9 1.4 2.2 1.1 3.5L271 882.7l238.4-125.4c0.6-0.2 1.2-0.4 1.8-0.4z m0 0" fill="#E8AA2E" p-id="4828"></path><path d="M511.2 134.3L634 383.1l274.4 39.8-198.6 193.6 47 273.4-245.5-129-245.5 129 46.9-273.4L114 422.9l274.5-39.8 122.7-248.8z m0 0" fill="#FFB533" p-id="4829"></path><path d="M265.7 893.9c-0.9 0-1.7-0.2-2.3-0.8-1.3-0.9-1.8-2.4-1.6-3.9l46.5-271.3-197-192.2c-1.1-1-1.5-2.6-1-4.1 0.5-1.4 1.7-2.5 3.3-2.7L386 379.3l121.8-246.7c1.4-2.7 5.7-2.7 7.1 0l121.8 246.9L909 419.1c1.5 0.2 2.8 1.3 3.3 2.7 0.5 1.4 0.1 3-1 4.1l-197.2 192 46.5 271.3c0.2 1.5-0.3 3-1.6 3.9-1.2 0.9-2.8 1-4.2 0.3L511.2 765.3 267.6 893.5c-0.7 0.2-1.3 0.4-1.9 0.4z m245.5-137c0.6 0 1.3 0.2 1.8 0.5l238.4 125.4L706 617.2c-0.2-1.3 0.2-2.6 1.1-3.5l192.9-188L633.4 387c-1.3-0.2-2.4-1-3-2.2L511.2 143.2 392 384.7c-0.6 1.2-1.7 2-3 2.2l-266.5 38.8 192.9 188c1 0.9 1.4 2.2 1.1 3.5L271 882.7l238.4-125.4c0.6-0.2 1.2-0.4 1.8-0.4z m0 0" fill="#E8AA2E" p-id="4830"></path><path d="M388.5 386.7l-0.8 0.1L511.2 552V143.2L388.5 386.7z m242.7 0l-0.2-0.7-119.8 166 388.6-126.3-268.6-39z m0 0" fill="#FFCC5A" p-id="4831"></path><path d="M391.1 386.7l0.3-0.6 119.8 166-388.7-126.4 268.6-39z m0 0M705.6 615.1l0.5-0.5L511.2 552l240.2 330.7-45.8-267.6z m0 0" fill="#FFCC5A" p-id="4832"></path><path d="M316.8 615.1l-0.5-0.5L511.5 552 270.9 882.7l45.9-267.6z m0 0" fill="#FFCC5A" p-id="4833"></path></svg>